<?xml version="1.0" encoding="UTF-8"?>
<svg width="91px" height="40px" viewBox="0 0 91 40" version="1.1" xmlns="http://www.w3.org/2000/svg" xmlns:xlink="http://www.w3.org/1999/xlink">
    <!-- Generator: Sketch 58 (84663) - https://sketch.com -->
    <title>Group 2</title>
    <desc>Created with Sketch.</desc>
    <g id="Page-1" stroke="none" stroke-width="1" fill="none" fill-rule="evenodd">
        <g id="Job-Openings" transform="translate(-32.000000, -24.000000)">
            <g id="Group-2" transform="translate(32.000000, 24.000000)">
                <path d="M59.0937923,20.5 L63.75,32.75 L50.5,32.75 L55.0744159,20.5 L59.0937923,20.5 Z M59.1517584,30.8596893 L55.1466198,30.8596893 L54.5193764,32.75 L59.7754839,32.75 L59.1517584,30.8596893 Z M57.1474301,23.9551282 L55.7561076,28.3525641 L58.5387527,28.3525641 L57.1474301,23.9551282 Z" id="Combined-Shape" fill="#242425"></path>
                <path d="M86.0937923,20.5 L90.75,32.75 L77.5,32.75 L82.0744159,20.5 L86.0937923,20.5 Z M86.1517584,30.8596893 L82.1466198,30.8596893 L81.5193764,32.75 L86.7754839,32.75 L86.1517584,30.8596893 Z M84.1474301,23.9551282 L82.7561076,28.3525641 L85.5387527,28.3525641 L84.1474301,23.9551282 Z" id="Combined-Shape-Copy" fill="#242425"></path>
                <rect id="Rectangle" fill="#242425" x="14.25" y="20.5" width="9.75" height="3.5"></rect>
                <path d="M29.7878788,29.9230769 L36,29.9230769 L36,32.75 L25.75,32.75 L25.75,29.9230769 L25.75,23.3269231 L25.75,20.5 L36,20.5 L36,23.3269231 L29.7878788,23.3269231 L29.7878788,24.8974359 L35.3787879,24.8974359 L35.3787879,27.724359 L29.7878788,27.724359 L29.7878788,29.9230769 Z" id="Combined-Shape" fill="#242425"></path>
                <path d="M41.7297297,32.75 L38,32.75 L38,20.5 L41.7297297,20.5 L45.77,26.589 L45.7702703,20.5 L49.5,20.5 L49.5,32.75 L45.7702703,32.75 L45.77,32.715 L41.7297297,26.7215606 L41.7297297,32.75 Z" id="Combined-Shape" fill="#242425"></path>
                <path d="M68.4444293,32.7466285 L64.75,32.7466285 L64.75,20.5 L68.4444293,20.5 L68.4444293,24.8975105 L72.2058318,20.5 L77.3696817,20.5 L73.209,25.038 L77.5,32.75 L72.8907479,32.75 L70.523,27.969 L68.4444293,30.2373613 L68.4444293,32.7466285 Z" id="Combined-Shape" fill="#242425"></path>
                <polygon id="Rectangle-Copy" fill="#242425" points="14.2762129 25 24 25 24 27.786138 18.341482 27.786138 18.341482 32.75 14.25 32.75"></polygon>
                <path d="M44.5415446,35.0666667 L46.2804878,39.5 L45.4551198,39.5 L45.0329851,38.386977 L43.1428294,38.386977 L42.7269952,39.5 L41.9268293,39.5 L43.6657725,35.0666667 L44.5415446,35.0666667 Z M77.6890244,35.0666667 L77.6890244,39.5 L77.0670732,39.5 L77.0670732,35.0666667 L77.6890244,35.0666667 Z M82.3536585,35.0666667 L82.3536585,35.7732487 L80.8699677,35.7732487 L80.8699677,39.5 L80.0992192,39.5 L80.0992192,35.7732487 L78.6219512,35.7732487 L78.6219512,35.0666667 L82.3536585,35.0666667 Z M34.9266432,34.75 C36.1300024,34.75 37.2621951,35.6305819 37.2621951,37.1217862 C37.2621951,38.6194181 36.1300024,39.5 34.9266432,39.5 C33.7232841,39.5 32.597561,38.6194181 32.597561,37.1217862 C32.597561,35.6305819 33.7232841,34.75 34.9266432,34.75 Z M85.7743902,35.0666667 L85.7743902,35.7669958 L83.7423989,35.7669958 L83.7423989,36.9425482 L85.582693,36.9425482 L85.582693,37.6241185 L83.7423989,37.6241185 L83.7423989,38.7996709 L85.7743902,38.7996709 L85.7743902,39.5 L82.9756098,39.5 L82.9756098,35.0666667 L85.7743902,35.0666667 Z M88.5898674,35.0666667 C89.7982894,35.0666667 90.75,35.8670428 90.75,37.2927127 C90.75,38.7121298 89.7857669,39.5 88.5836062,39.5 L87.0182927,39.5 L87.0182927,35.0666667 L88.5898674,35.0666667 Z M39.9073763,35.0666667 C40.7697986,35.0666667 41.304878,35.6606958 41.304878,36.4110484 C41.304878,37.0425952 40.9208798,37.5240715 40.2976696,37.674142 L41.304878,39.5 L40.4487509,39.5 L39.510788,37.7491772 L38.9568233,37.7491772 L38.9568233,39.5 L38.195122,39.5 L38.195122,35.0666667 L39.9073763,35.0666667 Z M16.539037,34.75 C17.6931732,34.75 18.3792431,35.4313261 18.5844229,36.2283491 L17.8598818,36.4725981 C17.7252326,35.9198241 17.3020493,35.4763194 16.539037,35.4763194 C15.7888484,35.4763194 15.0386598,36.0226658 15.0386598,37.1282138 C15.0386598,38.1951962 15.7696128,38.7608254 16.5454488,38.7608254 C17.3084612,38.7608254 17.7444682,38.2723275 17.898353,37.7581191 L18.6036585,37.9895129 C18.3984788,38.7608254 17.705997,39.5 16.5454488,39.5 C15.320782,39.5 14.25,38.6129905 14.25,37.1282138 C14.25,35.6434371 15.3592532,34.75 16.539037,34.75 Z M59.0571429,35.0666667 L61.0766551,38.2118947 L61.0766551,35.0666667 L61.8292683,35.0666667 L61.8292683,39.5 L61.0452962,39.5 L58.8501742,36.1421721 L58.8501742,39.5 L58.097561,39.5 L58.097561,35.0666667 L59.0571429,35.0666667 Z M51.5670732,35.0666667 L51.5670732,39.5 L50.945122,39.5 L50.945122,35.0666667 L51.5670732,35.0666667 Z M30.538381,35.0666667 C31.403262,35.0666667 31.9756098,35.641937 31.9756098,36.4173014 C31.9756098,37.1989187 31.403262,37.7679361 30.538381,37.7679361 L29.628984,37.7679361 L29.628984,39.5 L28.8658537,39.5 L28.8658537,35.0666667 L30.538381,35.0666667 Z M21.554692,34.75 C22.7580511,34.75 23.8902439,35.6305819 23.8902439,37.1217862 C23.8902439,38.6194181 22.7580511,39.5 21.554692,39.5 C20.3513328,39.5 19.2256098,38.6194181 19.2256098,37.1217862 C19.2256098,35.6305819 20.3513328,34.75 21.554692,34.75 Z M26.5354251,35.0666667 C27.3978473,35.0666667 27.9329268,35.6606958 27.9329268,36.4110484 C27.9329268,37.0425952 27.5489286,37.5240715 26.9257184,37.674142 L27.9329268,39.5 L27.0767996,39.5 L26.1388368,37.7491772 L25.5848721,37.7491772 L25.5848721,39.5 L24.8231707,39.5 L24.8231707,35.0666667 L26.5354251,35.0666667 Z M50.0121951,35.0666667 L50.0121951,35.7732487 L48.5285043,35.7732487 L48.5285043,39.5 L47.7577558,39.5 L47.7577558,35.7732487 L46.2804878,35.7732487 L46.2804878,35.0666667 L50.0121951,35.0666667 Z M71.8681989,35.0666667 L73.3353659,38.4495063 L74.7833959,35.0666667 L75.8231707,35.0666667 L75.8231707,39.5 L75.0640713,39.5 L75.0640713,36.2359661 L73.6543152,39.5 L72.9909006,39.5 L71.5939024,36.248472 L71.5939024,39.5 L70.847561,39.5 L70.847561,35.0666667 L71.8681989,35.0666667 Z M69.2926829,35.0666667 L69.2926829,39.5 L68.6707317,39.5 L68.6707317,35.0666667 L69.2926829,35.0666667 Z M65.6937517,35.0666667 L65.6937517,38.787165 L67.7378049,38.787165 L67.7378049,39.5 L64.9390244,39.5 L64.9390244,35.0666667 L65.6937517,35.0666667 Z M54.8290822,34.75 C56.0324414,34.75 57.1646341,35.6305819 57.1646341,37.1217862 C57.1646341,38.6194181 56.0324414,39.5 54.8290822,39.5 C53.6257231,39.5 52.5,38.6194181 52.5,37.1217862 C52.5,35.6305819 53.6257231,34.75 54.8290822,34.75 Z M88.5648224,35.7544899 L87.7696431,35.7544899 L87.7696431,38.8121768 L88.5585611,38.8121768 C89.3286954,38.8121768 89.9673433,38.3181946 89.9673433,37.2927127 C89.9673433,36.254725 89.3349566,35.7544899 88.5648224,35.7544899 Z M54.8290822,35.4763194 C54.0591912,35.4763194 53.2957698,36.0226658 53.2957698,37.1217862 C53.2957698,38.2209066 54.0591912,38.767253 54.8290822,38.767253 C55.605443,38.767253 56.3688644,38.2209066 56.3688644,37.1217862 C56.3688644,36.0226658 55.605443,35.4763194 54.8290822,35.4763194 Z M34.9266432,35.4763194 C34.1567521,35.4763194 33.3933307,36.0226658 33.3933307,37.1217862 C33.3933307,38.2209066 34.1567521,38.767253 34.9266432,38.767253 C35.703004,38.767253 36.4664254,38.2209066 36.4664254,37.1217862 C36.4664254,36.0226658 35.703004,35.4763194 34.9266432,35.4763194 Z M21.554692,35.4763194 C20.7848009,35.4763194 20.0213795,36.0226658 20.0213795,37.1217862 C20.0213795,38.2209066 20.7848009,38.767253 21.554692,38.767253 C22.3310527,38.767253 23.0944741,38.2209066 23.0944741,37.1217862 C23.0944741,36.0226658 22.3310527,35.4763194 21.554692,35.4763194 Z M44.0879072,35.8795487 L43.4074512,37.6929008 L44.7683633,37.6929008 L44.0879072,35.8795487 Z M30.4239114,35.7294781 L29.628984,35.7294781 L29.628984,37.1051246 L30.4239114,37.1051246 C30.9072273,37.1051246 31.1997606,36.8425012 31.1997606,36.4235543 C31.1997606,35.9983545 30.9072273,35.7294781 30.4239114,35.7294781 Z M39.7688852,35.7294781 L38.9568233,35.7294781 L38.9568233,37.0863658 L39.7688852,37.0863658 C40.2347191,37.0863658 40.5368816,36.8174894 40.5368816,36.4110484 C40.5368816,35.9983545 40.2347191,35.7294781 39.7688852,35.7294781 Z M26.3969339,35.7294781 L25.5848721,35.7294781 L25.5848721,37.0863658 L26.3969339,37.0863658 C26.8627678,37.0863658 27.1649304,36.8174894 27.1649304,36.4110484 C27.1649304,35.9983545 26.8627678,35.7294781 26.3969339,35.7294781 Z" id="Combined-Shape" fill="#242425" opacity="0.838404451"></path>
                <path d="M0,5.91449836 C4.30256973,6.45631362 8.9757585,6.45631362 14.0195663,5.91449836 C17.0838364,5.58532874 23.4159712,3.09815132 28.1652944,2.21739776 C30.2106896,1.83808287 32.8301149,1.76350897 36.0235704,1.99367608 C32.4175148,2.45850938 29.8909029,2.85616388 28.4437347,3.18663958 C26.040526,3.73543692 21.4618948,5.39681511 14.4649795,6.8223432 C12.8547092,7.15041429 10.1251109,7.47002242 6.27618448,7.78116759 C12.3395319,8.63628082 16.5367484,8.92533745 18.8678341,8.64833749 C26.1654791,7.78116759 29.27717,5.27343552 34.6214087,4.55111185 C38.084536,4.08303791 42.8773998,4.32381247 49,5.27343552 C43.9810567,2.99717709 39.7959598,1.52513189 36.4447093,0.857299927 C35.0242783,0.57423865 31.9466837,0.0102948882 28.8617566,0.000115437563 C26.2022962,-0.00866008422 23.5291285,0.484721096 22.0047915,0.857299927 C18.6888965,1.66777183 13.6526975,3.48060421 11.5188472,3.96166853 C8.68373274,4.60082884 4.84411699,5.25177212 0,5.91449836 Z" id="Path" fill="#DA2C41"></path>
                <path d="M11.5,10.9144984 C15.8025697,11.4563136 20.4757585,11.4563136 25.5195663,10.9144984 C28.5838364,10.5853287 34.9159712,8.09815132 39.6652944,7.21739776 C41.7106896,6.83808287 44.3301149,6.76350897 47.5235704,6.99367608 C43.9175148,7.45850938 41.3909029,7.85616388 39.9437347,8.18663958 C37.540526,8.73543692 32.9618948,10.3968151 25.9649795,11.8223432 C24.3547092,12.1504143 21.6251109,12.4700224 17.7761845,12.7811676 C23.8395319,13.6362808 28.0367484,13.9253375 30.3678341,13.6483375 C37.6654791,12.7811676 40.77717,10.2734355 46.1214087,9.55111185 C49.584536,9.08303791 54.3773998,9.32381247 60.5,10.2734355 C55.4810567,7.99717709 51.2959598,6.52513189 47.9447093,5.85729993 C46.5242783,5.57423865 43.4466837,5.01029489 40.3617566,5.00011544 C37.7022962,4.99133992 35.0291285,5.4847211 33.5047915,5.85729993 C30.1888965,6.66777183 25.1526975,8.48060421 23.0188472,8.96166853 C20.1837327,9.60082884 16.344117,10.2517721 11.5,10.9144984 Z" id="Path-Copy" fill="#00A78E"></path>
                <path d="M21.75,15.9144984 C26.0525697,16.4563136 30.7257585,16.4563136 35.7695663,15.9144984 C38.8338364,15.5853287 45.1659712,13.0981513 49.9152944,12.2173978 C51.9606896,11.8380829 54.5801149,11.763509 57.7735704,11.9936761 C54.1675148,12.4585094 51.6409029,12.8561639 50.1937347,13.1866396 C47.790526,13.7354369 43.2118948,15.3968151 36.2149795,16.8223432 C34.6047092,17.1504143 31.8751109,17.4700224 28.0261845,17.7811676 C34.0895319,18.6362808 38.2867484,18.9253375 40.6178341,18.6483375 C47.9154791,17.7811676 51.02717,15.2734355 56.3714087,14.5511119 C59.834536,14.0830379 64.6273998,14.3238125 70.75,15.2734355 C65.7310567,12.9971771 61.5459598,11.5251319 58.1947093,10.8572999 C56.7742783,10.5742387 53.6966837,10.0102949 50.6117566,10.0001154 C47.9522962,9.99133992 45.2791285,10.4847211 43.7547915,10.8572999 C40.4388965,11.6677718 35.4026975,13.4806042 33.2688472,13.9616685 C30.4337327,14.6008288 26.594117,15.2517721 21.75,15.9144984 Z" id="Path-Copy-2" fill="#205A9D"></path>
            </g>
        </g>
    </g>
</svg>